<svg xmlns="http://www.w3.org/2000/svg" width="28.506" height="32.001" viewBox="0 0 28.506 32.001">
  <g id="copa-ganadora" transform="translate(-3.502)">
    <g id="Grupo_1483" data-name="Grupo 1483" transform="translate(8.461 19.091)">
      <g id="Grupo_1479" data-name="Grupo 1479" transform="translate(3.62)">
        <g id="Grupo_1477" data-name="Grupo 1477" transform="translate(6.17 0.005)">
          <path id="Trazado_3981" data-name="Trazado 3981" d="M37.455,44.055A4.1,4.1,0,0,1,34.4,42.88,5.924,5.924,0,0,1,33,38.9a.716.716,0,0,1,.715-.705h.01a.715.715,0,0,1,.705.725,4.544,4.544,0,0,0,.99,2.955,2.69,2.69,0,0,0,2.03.75.718.718,0,0,1,.005,1.435Z" transform="translate(-32.999 -38.19)" fill="#154481"/>
        </g>
        <g id="Grupo_1478" data-name="Grupo 1478">
          <path id="Trazado_3982" data-name="Trazado 3982" d="M21.375,44.05a.715.715,0,1,1,0-1.43,2.679,2.679,0,0,0,2.025-.75,4.532,4.532,0,0,0,.99-2.96.718.718,0,1,1,1.435-.025,5.942,5.942,0,0,1-1.405,3.99,4.091,4.091,0,0,1-3.045,1.175Z" transform="translate(-20.66 -38.18)" fill="#154481"/>
        </g>
      </g>
      <g id="Grupo_1482" data-name="Grupo 1482" transform="translate(0 4.44)">
        <g id="Grupo_1480" data-name="Grupo 1480" transform="translate(3.62)">
          <path id="Trazado_3983" data-name="Trazado 3983" d="M31.285,52.01a.715.715,0,0,1-.715-.715V48.49H22.09V51.3a.715.715,0,1,1-1.43,0v-3.52a.715.715,0,0,1,.715-.715h9.91a.715.715,0,0,1,.715.715V51.3A.715.715,0,0,1,31.285,52.01Z" transform="translate(-20.66 -47.06)" fill="#154481"/>
        </g>
        <g id="Grupo_1481" data-name="Grupo 1481" transform="translate(0 3.515)">
          <path id="Trazado_3984" data-name="Trazado 3984" d="M31.286,59.045H14.135a.715.715,0,0,1-.715-.715V57.16a3.074,3.074,0,0,1,3.07-3.07H28.93A3.074,3.074,0,0,1,32,57.16v1.17A.715.715,0,0,1,31.286,59.045ZM14.855,57.61H30.571v-.45a1.639,1.639,0,0,0-1.635-1.635H16.49a1.639,1.639,0,0,0-1.635,1.635Z" transform="translate(-13.42 -54.09)" fill="#154481"/>
        </g>
      </g>
    </g>
    <g id="Grupo_1490" data-name="Grupo 1490" transform="translate(3.502 0)">
      <g id="Grupo_1486" data-name="Grupo 1486" transform="translate(0 2.15)">
        <g id="Grupo_1484" data-name="Grupo 1484" transform="translate(19.812)">
          <path id="Trazado_3985" data-name="Trazado 3985" d="M43.842,18.3a.726.726,0,0,1-.635-.38.719.719,0,0,1,.3-.97,13.193,13.193,0,0,0,6.87-10.5.653.653,0,0,0-.165-.51.626.626,0,0,0-.46-.205H46.107a.715.715,0,1,1,0-1.43h3.645a2.06,2.06,0,0,1,1.525.675,2.083,2.083,0,0,1,.53,1.61A14.616,14.616,0,0,1,44.182,18.21.794.794,0,0,1,43.842,18.3Z" transform="translate(-43.124 -4.3)" fill="#154481"/>
        </g>
        <g id="Grupo_1485" data-name="Grupo 1485">
          <path id="Trazado_3986" data-name="Trazado 3986" d="M11.471,18.29a.681.681,0,0,1-.335-.085A14.622,14.622,0,0,1,3.511,6.585a2.105,2.105,0,0,1,.535-1.61A2.058,2.058,0,0,1,5.566,4.3H9.211a.715.715,0,1,1,0,1.43H5.566a.617.617,0,0,0-.46.205.653.653,0,0,0-.165.51,13.169,13.169,0,0,0,6.87,10.49.719.719,0,0,1-.34,1.355Z" transform="translate(-3.502 -4.3)" fill="#154481"/>
        </g>
      </g>
      <g id="Grupo_1489" data-name="Grupo 1489" transform="translate(4.969)">
        <g id="Grupo_1487" data-name="Grupo 1487">
          <path id="Trazado_3987" data-name="Trazado 3987" d="M22.72,20.636c-5.945,0-9.07-6.235-9.28-18.526a2.052,2.052,0,0,1,.6-1.49A2.042,2.042,0,0,1,15.5,0H29.93A2.066,2.066,0,0,1,32,2.105c-.205,12.3-3.33,18.531-9.275,18.531ZM15.5,1.435a.616.616,0,0,0-.45.19.655.655,0,0,0-.185.46C15.07,13.44,17.71,19.2,22.72,19.2s7.65-5.76,7.845-17.121a.615.615,0,0,0-.185-.46.636.636,0,0,0-.45-.19H15.5Z" transform="translate(-13.439 0)" fill="#154481"/>
        </g>
        <g id="Grupo_1488" data-name="Grupo 1488" transform="translate(4.145 3.05)">
          <path id="Trazado_3988" data-name="Trazado 3988" d="M29.595,15.94a.719.719,0,0,1-.335-.08l-2.4-1.26-2.4,1.26a.717.717,0,0,1-1.04-.755l.46-2.67-1.94-1.89a.72.72,0,0,1,.4-1.225l2.68-.39,1.2-2.43a.712.712,0,0,1,1.28,0l1.2,2.43,2.68.39a.72.72,0,0,1,.4,1.225l-1.94,1.89.46,2.67a.717.717,0,0,1-.285.7A.728.728,0,0,1,29.595,15.94Zm-2.73-2.865a.786.786,0,0,1,.335.08l1.445.76-.275-1.61a.716.716,0,0,1,.205-.635l1.17-1.14-1.62-.235a.719.719,0,0,1-.54-.39l-.72-1.47L26.14,9.9a.708.708,0,0,1-.54.39l-1.62.235,1.17,1.14a.712.712,0,0,1,.205.635l-.275,1.61,1.445-.76a.819.819,0,0,1,.34-.075Z" transform="translate(-21.729 -6.1)" fill="#154481"/>
        </g>
      </g>
    </g>
  </g>
</svg>
