<svg id="inscripcion-abierta" xmlns="http://www.w3.org/2000/svg" width="32.001" height="32.001" viewBox="0 0 32.001 32.001">
  <path id="Trazado_3981" data-name="Trazado 3981" d="M3.75,32V28.032A4.7,4.7,0,0,1,0,23.438V4.688A4.693,4.693,0,0,1,4.688,0H27.313A4.693,4.693,0,0,1,32,4.688V23.438a4.693,4.693,0,0,1-4.688,4.688H9.563ZM4.688,1.875A2.816,2.816,0,0,0,1.875,4.688V23.438a2.816,2.816,0,0,0,2.813,2.813h.938V28.5L9,26.251H27.313a2.816,2.816,0,0,0,2.813-2.813V4.688a2.816,2.816,0,0,0-2.813-2.813Z" transform="translate(0 0)" fill="#154481"/>
  <path id="Línea_127" data-name="Línea 127" d="M-5.023-10.691l-.718-1.732,3.465-1.435.718,1.732Z" transform="translate(29.303 21.941)" fill="#154481"/>
  <path id="Línea_128" data-name="Línea 128" d="M-2.276-10.691-5.74-12.126l.718-1.732,3.465,1.435Z" transform="translate(29.303 30.734)" fill="#154481"/>
  <path id="Trazado_3982" data-name="Trazado 3982" d="M123.781,275.625A3.786,3.786,0,0,1,120,271.844V270h1.875v1.844a1.906,1.906,0,1,0,3.813,0l1.875-.01A3.788,3.788,0,0,1,123.781,275.625Z" transform="translate(-112.5 -253.124)" fill="#154481"/>
  <path id="Trazado_3983" data-name="Trazado 3983" d="M77.938,112.042l-13.4-4.319H60v-7.5h4.54l13.4-4.319Zm-16.063-6.194h2.96l11.228,3.619V98.479L64.835,102.1h-2.96Z" transform="translate(-56.25 -89.911)" fill="#154481"/>
  <path id="Línea_129" data-name="Línea 129" d="M3.75-13.125H0V-15H3.75Z" transform="translate(24.501 28.125)" fill="#154481"/>
</svg>
