<svg xmlns="http://www.w3.org/2000/svg" width="22.512" height="18.76" viewBox="0 0 22.512 18.76">
  <path id="reply" d="M21.808,20.76a.7.7,0,0,1-.617-.367l-.02-.036A11.963,11.963,0,0,0,10.71,14.194H9.38V18.18a.7.7,0,0,1-1.193.5L.214,10.947a.7.7,0,0,1,0-1.009L8.187,2.2a.7.7,0,0,1,1.193.5V6.692A13.382,13.382,0,0,1,22.512,20.056a.7.7,0,0,1-.529.682A.694.694,0,0,1,21.808,20.76ZM8.676,12.787H10.71a13.374,13.374,0,0,1,10.1,4.606A11.981,11.981,0,0,0,9.145,8.1H8.676a.7.7,0,0,1-.7-.7V4.367L1.714,10.442l6.259,6.075V13.49a.7.7,0,0,1,.7-.7Z" transform="translate(0 -2)" fill="#676767"/>
</svg>
